<svg xmlns="http://www.w3.org/2000/svg" xmlns:xlink="http://www.w3.org/1999/xlink" preserveAspectRatio="xMidYMid" width="11.906" height="24" viewBox="0 0 11.906 24">
  <defs>
    <style>
      .cls-1 {
        fill: #1b1b1b;
        fill-rule: evenodd;
      }
    </style>
  </defs>
  <path d="M11.840,9.214 L11.320,11.273 C11.073,12.257 10.112,13.000 9.087,13.000 L8.000,13.000 L8.000,22.000 C8.000,23.103 7.171,24.000 6.058,24.000 L4.038,24.000 C2.925,24.000 2.019,23.103 2.019,22.000 L2.019,13.000 C0.905,13.000 -0.000,12.103 -0.000,11.000 L-0.000,9.000 C-0.000,7.897 0.905,7.000 2.019,7.000 L2.019,5.000 C2.019,2.583 3.345,0.000 7.067,0.000 L10.096,0.000 C10.654,0.000 11.000,0.448 11.000,1.000 L11.000,5.000 C11.000,5.552 10.654,6.000 10.096,6.000 L8.077,6.000 L8.077,7.000 L10.096,7.000 C10.674,7.000 11.198,7.244 11.533,7.669 C11.869,8.095 11.980,8.658 11.840,9.214 ZM7.067,9.000 C6.510,9.000 6.058,8.552 6.058,8.000 L6.058,5.000 C6.058,4.448 6.510,4.000 7.067,4.000 L9.087,4.000 L9.087,2.000 L7.067,2.000 C5.057,2.000 4.038,3.009 4.038,5.000 L4.038,8.000 C4.038,8.552 3.586,9.000 3.029,9.000 L2.019,9.000 L2.019,11.000 L3.029,11.000 C3.586,11.000 4.038,11.448 4.038,12.000 C4.038,12.067 4.013,12.125 4.000,12.188 L4.000,22.000 L6.058,22.000 L6.058,12.000 C6.058,11.448 6.510,11.000 7.067,11.000 L9.087,11.000 C9.178,11.000 9.339,10.876 9.361,10.789 L9.812,9.000 L7.067,9.000 Z" class="cls-1"/>
</svg>
