<svg xmlns="http://www.w3.org/2000/svg" xmlns:xlink="http://www.w3.org/1999/xlink" preserveAspectRatio="xMidYMid" width="23.812" height="20" viewBox="0 0 23.812 20">
  <defs>
    <style>
      .cls-1 {
        fill: #1b1b1b;
        fill-rule: evenodd;
      }
    </style>
  </defs>
  <path d="M15.720,2.001 C16.891,2.001 17.946,2.490 18.690,3.276 C19.616,3.093 20.488,2.759 21.272,2.298 C20.970,3.238 20.324,4.028 19.484,4.527 C20.306,4.429 21.092,4.213 21.822,3.891 C21.275,4.699 20.586,5.410 19.792,5.979 C19.799,6.152 19.802,6.327 19.802,6.501 C19.802,11.831 16.435,17.999 8.950,17.999 C5.966,17.999 3.787,17.306 1.988,16.162 C2.306,16.201 2.630,16.219 2.958,16.219 C4.864,16.219 6.619,15.575 8.013,14.492 C6.231,14.461 4.727,13.294 4.212,11.692 C4.459,11.740 4.716,11.765 4.978,11.765 C5.347,11.765 5.708,11.716 6.048,11.624 C4.187,11.254 2.952,9.638 2.952,7.683 C2.952,7.665 2.952,7.648 2.952,7.631 C3.501,7.933 4.127,8.114 4.795,8.136 C3.703,7.412 2.985,6.179 2.985,4.779 C2.985,4.041 3.186,3.347 3.536,2.753 C5.542,5.192 8.374,6.784 11.756,6.953 C11.686,6.659 11.650,6.348 11.650,6.035 C11.650,3.806 13.472,2.001 15.720,2.001 M21.822,3.891 L21.827,3.891 M15.720,0.000 C12.864,0.000 10.462,1.979 9.826,4.633 C7.989,4.128 6.369,3.059 5.068,1.477 C4.688,1.016 4.125,0.753 3.536,0.753 C3.484,0.753 3.432,0.755 3.380,0.759 C2.734,0.810 2.154,1.173 1.824,1.734 C1.282,2.654 0.996,3.707 0.996,4.779 C0.996,5.395 1.089,5.997 1.267,6.568 C1.071,6.882 0.963,7.249 0.963,7.631 L0.963,7.683 C0.963,9.122 1.430,10.441 2.234,11.474 C2.204,11.751 2.231,12.035 2.319,12.308 C2.546,13.012 2.893,13.651 3.336,14.207 C3.210,14.215 3.084,14.218 2.958,14.218 C2.701,14.218 2.456,14.204 2.230,14.176 C2.149,14.166 2.067,14.161 1.987,14.161 C1.156,14.161 0.400,14.686 0.115,15.490 C-0.198,16.371 0.139,17.353 0.925,17.853 C3.196,19.298 5.821,20.000 8.950,20.000 C14.044,20.000 17.080,17.557 18.729,15.508 C20.589,13.196 21.691,10.095 21.785,6.938 C22.400,6.392 22.947,5.772 23.419,5.086 C23.667,4.753 23.813,4.339 23.813,3.891 C23.813,3.349 23.599,2.857 23.251,2.497 C23.317,1.833 23.049,1.168 22.518,0.739 C22.157,0.446 21.715,0.297 21.272,0.297 C20.926,0.297 20.580,0.388 20.268,0.571 C19.921,0.775 19.555,0.944 19.174,1.077 C18.167,0.384 16.959,0.000 15.720,0.000 L15.720,0.000 Z" class="cls-1"/>
</svg>
